<svg width="230" height="210" viewBox="0 0 230 210" fill="none" xmlns="http://www.w3.org/2000/svg">
<g clip-path="url(#clip0_125_30)">
<path d="M229.607 83.9106C229.565 91.8331 229.703 99.7556 229.405 107.657C229.236 112.087 229.777 115.249 226.177 118.625C224.308 120.382 221.865 121.191 219.38 121.553C215.046 149.357 199.243 174.551 176.43 190.737C141.977 215.186 95.9363 216.464 60.1767 193.91C39.3178 180.748 23.1213 159.952 16.0161 136.195L8.64544 136.813C4.4503 136.664 1.04108 133.799 0.127712 129.699C-0.222768 121.756 0.191436 113.758 0.255159 105.847C0.308262 99.0528 -0.190906 91.5989 0.233918 84.9222C0.456951 81.4827 1.67832 78.5011 4.3972 76.3075C7.91262 73.475 11.8529 74.3163 15.9949 73.6241C22.2823 53.3706 34.8571 35.2681 51.489 22.2342C80.1965 -0.26615 118.696 -6.17609 152.948 6.74059C177.959 16.1646 198.882 35.4171 210.384 59.5787L219.794 58.8439C224.87 58.237 229.395 61.7297 229.83 66.8623C230.298 72.4315 229.639 78.3521 229.607 83.9106Z" fill="#340111" style="fill:#340111;fill:color(display-p3 0.2039 0.0039 0.0667);fill-opacity:1;"/>
<path d="M205.541 109.83C208.376 109.489 208.727 109.489 208.621 112.3C207.697 135.29 194.017 159.888 176.844 174.615C126.587 217.699 48.5362 194.571 29.6103 131.435C29.1218 129.796 27.8473 125.973 27.8367 124.471C27.8367 123.96 28.0491 123.364 28.6014 123.204C28.9625 123.108 30.9698 122.927 31.3946 122.949C31.8406 122.97 32.2973 123.023 32.6053 123.374C32.9133 123.726 34.1028 128.997 34.4321 130.062C47.6547 173.274 91.7197 199.448 136.124 189.598C173.159 181.377 201.303 148.878 203.672 110.767C203.937 109.904 204.797 109.915 205.562 109.819L205.541 109.83Z" fill="#832237" style="fill:#832237;fill:color(display-p3 0.5137 0.1333 0.2157);fill-opacity:1;"/>
<path d="M196.11 68.9176C195.706 68.5236 194.145 64.8392 193.667 63.966C185.903 49.7715 174.539 37.6961 160.488 29.6351C113.449 2.64106 54.7387 24.6729 35.9721 75.0086C35.6216 75.9457 34.156 80.9931 33.848 81.3019C33.5293 81.6213 30.5343 81.8237 29.9608 81.7385C29.2705 81.6426 29.0368 81.3658 29.0262 80.6417C29.0156 79.4703 30.2157 76.2438 30.6511 74.9554C39.8805 47.6951 62.6086 25.6632 90.0204 17.155C131.908 4.15315 177.003 22.671 197.777 61.0483C198.425 62.241 200.645 66.2661 200.868 67.2884C201.016 67.9593 201.059 68.6301 200.315 68.875C199.593 69.1093 196.609 69.3968 196.099 68.9176H196.11Z" fill="#832237" style="fill:#832237;fill:color(display-p3 0.5137 0.1333 0.2157);fill-opacity:1;"/>
<path d="M197.023 110.819C197.533 111.33 197.14 114.078 197.044 114.908C193.762 144.724 172.054 170.877 144.132 180.801C101.321 196.029 53.6766 172.165 40.5283 128.783C40.1672 127.591 38.7865 123.565 39.3494 122.671C39.668 122.17 43.2684 121.851 43.8313 122.426C44.2455 122.852 45.4669 127.878 45.8386 128.943C59.5392 169.024 103.211 190.502 143.325 175.722C167.976 166.639 186.551 144.671 191.341 118.72C191.798 116.261 192.021 113.769 192.446 111.298C192.807 110.659 194.973 110.542 195.759 110.553C196.11 110.553 196.779 110.574 197.023 110.819Z" fill="#D05469" style="fill:#D05469;fill:color(display-p3 0.8157 0.3294 0.4118);fill-opacity:1;"/>
<path d="M113.014 24.3637C142.507 22.9261 170.142 37.4614 185.616 62.4855C186.434 63.8059 188.527 67.043 188.888 68.3528C189.026 68.8533 188.973 69.3112 188.558 69.6626C188.123 70.0353 184.618 70.3654 184.002 69.7797C173.605 50.0586 154.583 35.4168 132.694 30.9019C97.6778 23.6821 63.044 41.7421 48.4406 74.103C47.9627 75.1679 46.3484 79.8958 45.9448 80.3324C45.7217 80.5667 45.2332 80.6732 44.9146 80.7264C44.3411 80.8116 42.8436 80.9607 42.2913 80.95C41.2398 80.95 40.8363 80.2259 41.0274 79.2676C41.4098 77.2976 43.2896 73.2298 44.1818 71.2705C56.4804 44.3829 83.3718 25.8225 113.003 24.3743L113.014 24.3637Z" fill="#D05469" style="fill:#D05469;fill:color(display-p3 0.8157 0.3294 0.4118);fill-opacity:1;"/>
<path d="M38.6802 99.7877C38.1067 91.7161 32.584 88.1169 24.8097 88.9368L11.7463 89.9484L11.9481 118.774C17.4708 118.188 23.0892 118.22 28.5481 117.251C37.1721 115.175 39.2537 107.859 38.6802 99.7877ZM28.4313 107.391C26.6577 109.946 23.6096 109.616 20.8588 109.84V97.7645L21.358 97.4556C23.4078 97.5834 25.3513 96.689 27.2737 97.8177C30.0669 99.4682 30.12 104.963 28.4313 107.391Z" fill="white" style="fill:white;fill-opacity:1;"/>
<path d="M136.645 93.1004C136.082 84.9436 131.642 80.6842 123.443 80.8758C115.032 81.0675 108.798 85.5505 108.107 94.3143C107.204 105.783 111.729 112.736 123.974 111.033C133.745 109.669 137.293 102.386 136.655 93.1004H136.645ZM126.502 100.778C124.675 105.144 119.078 105.229 117.719 100.309C116.752 96.7848 116.965 89.171 121.617 88.3724C128.031 87.2756 128.17 96.7848 126.502 100.778Z" fill="white" style="fill:white;fill-opacity:1;"/>
<path d="M188.272 94.3143L191.723 92.0888C195.472 88.0104 195.43 78.9911 189.238 77.3086C185.34 76.2437 176.95 77.66 172.574 77.9688C172.022 78.0114 170.206 77.7665 170.047 78.2776V106.794L179.159 106.187V96.2417L185.829 105.676L195.557 104.974L188.261 94.325L188.272 94.3143ZM179.159 90.3637V84.6774C181.496 84.8478 185.755 83.2398 185.648 87.0201C185.563 90.3105 181.612 90.2679 179.159 90.3637Z" fill="white" style="fill:white;fill-opacity:1;"/>
<path d="M165.395 97.1577C164.981 103.547 162.049 107.316 155.688 108.541C148.848 109.851 140.096 108.647 140.096 99.8092V80.4182L149.209 79.6089V98.9892C149.209 99.1383 149.644 100.224 149.772 100.448C151.046 102.684 154.636 102.152 155.73 100.043C155.826 99.8624 156.293 98.4674 156.293 98.3716V79.1936L165.405 78.3843C165.119 84.5391 165.798 91.0454 165.405 97.1577H165.395Z" fill="white" style="fill:white;fill-opacity:1;"/>
<path d="M105.473 102.535V110.457C104.178 110.958 102.956 111.565 101.629 111.98C95.936 113.748 87.3864 114.451 83.2125 109.339C79.474 104.76 79.6014 94.8466 82.3628 89.8205C86.6323 82.0683 97.3272 82.0257 104.857 84.0809L105.07 91.9928C98.007 90.5765 88.6608 89.6075 89.691 99.7982C90.4663 107.518 100.875 104.547 105.484 102.535H105.473Z" fill="white" style="fill:white;fill-opacity:1;"/>
<path d="M78.1146 106.869C77.1162 116.389 62.4067 116.804 55.6732 113.897V105.985C58.955 107.018 64.4034 109.19 67.7276 107.817C69.6818 107.018 69.257 105.549 67.632 104.654C63.5006 102.386 57.2875 102.876 55.7688 96.6571C53.0818 85.6252 68.7047 82.7182 75.9161 86.8072V94.2186C73.5796 93.0153 67.2603 90.7685 65.2955 93.2177C63.0545 96.0182 70.7226 97.541 72.1776 98.0734C76.5852 99.6813 78.6456 101.907 78.1146 106.88V106.869Z" fill="white" style="fill:white;fill-opacity:1;"/>
<path d="M217.531 101.332C213.262 105.549 202.482 105.762 197.384 103.046V95.4325C201.006 96.3057 205.084 98.1479 208.929 97.3705C210.054 97.1469 211.212 96.3057 210.628 95.0278C210.044 93.7287 204.797 92.5467 203.257 91.8759C200.305 90.5767 197.724 88.4044 197.384 84.9756C196.311 74.2951 210.32 72.7085 217.627 75.9456V83.4529C215.259 82.6968 213.018 81.3551 210.437 81.419C207.505 81.4829 204.946 83.5594 208.376 85.5293C211.201 87.1586 215.025 87.0414 217.723 89.3522C221.026 92.174 220.473 98.4247 217.531 101.332Z" fill="white" style="fill:white;fill-opacity:1;"/>
<path d="M51.6268 86.9028V115.728L42.5143 116.335V87.8186L43.0241 87.5205L51.6268 86.9028Z" fill="white" style="fill:white;fill-opacity:1;"/>
<path d="M101.108 132.372C100.673 131.925 98.6336 134.64 98.1769 135.013C97.4972 135.577 96.6794 136.216 95.7766 136.238C94.8526 136.035 97.0511 131.637 97.4547 131.233C98.453 130.274 101.629 131.307 100.513 128.997L99.0797 129.114C99.0797 128.028 100.46 127.41 100.29 126.271C99.5045 125.483 97.3166 129.124 96.8387 129.401C95.6811 130.072 93.1534 129.422 93.61 131.744C93.7587 131.893 95.4793 131.435 95.235 132.042C94.619 133.565 91.5178 136.525 89.9672 137.121C88.6927 137.601 86.8659 137.845 86.9297 136.003C89.2981 137.388 93.4826 131.297 91.9426 129.763C90.7106 128.528 87.8218 131.19 87.0465 132.17C85.9207 133.597 85.018 136.238 83.2018 137.036C80.9928 138.016 82.6283 133.916 82.9894 132.958C84.2108 129.657 86.2606 126.313 88.1404 123.342C86.1013 120.765 83.701 124.993 82.5115 126.601C80.8972 128.794 79.5165 131.158 77.9128 133.362C77.7959 132.287 78.2314 131.148 78.5288 130.115C78.8155 129.092 80.5042 125.078 80.4617 124.535C80.4086 123.821 78.9324 123.907 78.4332 124.13C77.7535 124.439 75.3107 127.878 74.7054 128.72C73.6114 130.242 72.4644 131.989 71.4661 133.586C70.4996 135.141 67.5152 139.858 67.3028 141.402C67.1753 142.382 68.11 143.319 68.8109 142.701C71.1474 138.197 73.6539 133.767 76.7126 129.71L75.0133 137.547C74.7903 138.506 74.9921 140.252 76.2029 139.155C76.9038 138.538 78.3588 135.513 79.0279 134.481C79.4846 133.778 81.715 130.36 82.1716 130.115C82.2566 130.072 82.5115 130.072 82.469 130.221C80.0369 133.714 77.9553 144.831 85.0073 137.633H85.2941C86.8235 141.157 91.2735 138.644 93.1002 136.621C93.5038 136.451 93.472 137.611 93.7162 138.016C95.012 140.199 98.6867 136.674 99.6638 135.492C100.397 134.608 101.289 133.565 101.087 132.351L101.108 132.372ZM87.2377 134.598C87.4076 133.906 89.8185 130.626 90.5832 131.361C90.923 131.691 88.5759 135.492 87.4607 135.215C87.1315 134.981 87.1421 134.96 87.2377 134.598Z" fill="white" style="fill:white;fill-opacity:1;"/>
<path d="M171.672 121.01C171.236 120.041 170.387 120.414 169.739 120.904C167.487 122.597 165.278 126.824 162.655 129.028C162.495 129.156 160.212 130.903 160.424 130.242C161.051 129.273 161.444 128.166 162.007 127.165C162.485 126.313 164.45 123.768 164.598 123.246C164.736 122.746 164.11 122.192 163.611 122.256C162.697 122.384 160.785 126.121 160.095 127.08C159.617 127.761 158.183 129.731 157.482 129.944C157.121 129.987 157.174 129.955 157.174 129.635C157.174 128.528 157.96 127.431 158.513 126.505C158.916 125.834 161.54 123.012 159.511 123.023C157.737 123.023 156.304 128.475 153.85 128.315C153.277 128.208 153.882 126.995 153.925 126.569C154.041 125.355 154.02 124.673 152.926 123.96C152.077 123.406 151.216 124.162 150.505 124.758C148.88 126.121 145.056 131.414 147.276 133.277C148.997 134.725 151.949 131.339 152.671 129.934L154.753 129.731C154.413 133.245 156.42 132.638 158.396 130.945C158.438 131.286 158.215 131.627 157.982 131.85C157.228 132.553 155.55 133.213 154.551 134.097C153.022 135.439 150.738 138.495 152.215 140.508C153.553 142.328 156.038 139.645 156.866 138.452C157.78 137.121 159.161 132.947 159.67 132.436C160.148 131.957 162.315 130.913 163.122 130.317C163.791 129.816 164.29 129.092 165.076 128.73C164.641 130.498 164.694 132.202 166.988 131.765C169.197 131.35 170.312 125.238 170.939 123.342C171.183 122.618 171.98 121.734 171.661 121.021L171.672 121.01ZM151.238 129.124C151.025 129.635 149.485 131.744 148.901 131.158C148.784 130.189 149.028 129.433 149.475 128.581C149.634 128.272 151.365 125.695 151.737 126.089C151.238 127.048 151.577 128.326 151.248 129.135L151.238 129.124ZM153.744 138.261C153.478 137.611 153.68 137.025 154.052 136.44C154.296 136.067 156.718 133.959 156.983 134.204C156.739 134.928 154.594 138.857 153.744 138.261ZM165.713 128.901C165.65 128.858 165.512 128.389 165.533 128.251C165.639 127.644 168.347 124.929 168.921 124.258C168.857 125.323 167.317 129.934 165.713 128.901Z" fill="white" style="fill:white;fill-opacity:1;"/>
<path d="M145.948 116.783C143.283 116.74 137.165 119.147 135.232 121.01C134.595 121.628 133.544 123.417 135.02 123.246C135.413 123.204 138.556 120.733 139.682 120.403C139.969 120.318 140.043 120.425 139.98 120.701C137.845 123.193 135.901 126.207 134.414 129.124C134.064 129.806 130.984 135.652 133.575 134.789C133.926 134.672 134.064 133.884 134.521 133.799C134.574 134.364 134.977 134.949 135.53 135.13C138.801 136.152 143.123 132.809 144.78 130.168C145.906 128.379 146.766 126.026 144.249 125.067C144.185 124.78 144.281 124.737 144.462 124.567C144.971 124.098 146.341 123.566 147.085 122.938C149.751 120.68 150.303 116.857 145.97 116.783H145.948ZM137.856 132.777C136.517 132.926 135.54 132.937 135.976 131.297C136.082 130.924 136.517 130.637 136.634 130.317C136.762 129.966 136.581 129.678 136.74 129.242C136.804 129.061 137.834 127.272 137.93 127.176C138.174 126.931 140.925 125.951 141.339 125.898C142.295 125.791 143.495 126.324 143.559 127.421C143.665 129.55 139.831 132.553 137.856 132.766V132.777ZM146.83 120.052C146.479 121.702 141.658 124.929 139.778 124.258C139.544 124.088 142.635 119.583 142.943 119.413C143.761 118.955 147.17 118.455 146.841 120.052H146.83Z" fill="white" style="fill:white;fill-opacity:1;"/>
<path d="M117.761 120.254C115.605 119.52 113.641 120.233 111.591 121.053C109.722 121.798 105.07 123.641 106.164 126.196L106.886 126.303C107.066 125.93 107.066 125.706 107.385 125.366C107.852 124.855 111.092 123.076 111.793 122.874C112.09 122.789 112.334 122.714 112.26 123.14C109.891 126.292 108.298 129.934 106.323 133.331C105.888 134.087 106.036 133.831 105.739 134.672C105.335 135.791 104.379 136.93 105.707 137.856L106.663 137.271C109.7 139.912 114.065 135.46 115.903 133.097C117.899 130.52 122.689 121.926 117.772 120.265L117.761 120.254ZM109.828 135.535C109.063 135.695 108.16 135.78 107.608 135.12C108.447 133.586 114.49 122.107 115.202 121.862C116.614 121.383 117.963 122.033 118.101 123.577C118.377 126.835 113.088 134.854 109.828 135.535Z" fill="white" style="fill:white;fill-opacity:1;"/>
<path d="M128.456 129.859C128.446 129.636 128.116 129.71 127.968 129.763C127.66 129.88 126.3 131.627 125.812 132.074C124.452 133.309 120.576 135.971 120.14 132.788C122.509 134.172 126.693 128.081 125.153 126.547C124.951 126.345 124.389 126.271 124.091 126.281C121.192 126.42 116.243 133.352 119.259 135.599C121.542 137.303 125.185 134.758 126.831 133.096C127.426 132.489 129.03 130.647 128.456 129.859ZM120.438 131.35C120.608 130.658 123.018 127.378 123.783 128.113C124.123 128.443 121.776 132.244 120.661 131.968C120.331 131.733 120.342 131.712 120.438 131.35Z" fill="white" style="fill:white;fill-opacity:1;"/>
</g>
<defs>
<clipPath id="clip0_125_30">
<rect width="230" height="210" fill="white" style="fill:white;fill-opacity:1;"/>
</clipPath>
</defs>
</svg>
